<svg id="visual" viewBox="0 0 960 540" width="960" height="540" xmlns="http://www.w3.org/2000/svg" xmlns:xlink="http://www.w3.org/1999/xlink" version="1.1"><g transform="translate(963.9043564493709 16.182564432663526)"><path d="M74.3 -118.5C109.6 -92.8 160.8 -94.8 187.3 -74.5C213.9 -54.1 215.8 -11.4 213.6 33.4C211.4 78.3 205.1 125.3 179.9 157.9C154.8 190.6 110.8 209 72.9 196.5C35 184 3.2 140.6 -40.1 130.6C-83.5 120.7 -138.5 144.1 -165.9 132.6C-193.3 121 -193.2 74.4 -201.9 27.7C-210.5 -18.9 -228.1 -65.5 -220 -107.6C-211.9 -149.6 -178.1 -187.1 -137.2 -210.3C-96.2 -233.4 -48.1 -242.2 -14.3 -219.9C19.5 -197.6 38.9 -144.2 74.3 -118.5" fill="#04135c"></path></g></svg>