<svg xmlns="http://www.w3.org/2000/svg" version="1.1" xmlns:xlink="http://www.w3.org/1999/xlink" xmlns:svgjs="http://svgjs.dev/svgjs" width="1440" height="419" preserveAspectRatio="none" viewBox="0 0 1440 419"><g mask="url(&quot;#SvgjsMask1146&quot;)" fill="none"><path d="M565.55 488.19C671.06 484 647.31 315.68 949.1 311.33 1250.89 306.98 1518.73 124.16 1716.21 122.78" stroke="rgba(51,121,194,0.58)" stroke-width="2"></path><path d="M288.88 497.82C423.63 483.71 503.89 194.65 736.43 192.23 968.98 189.81 960.21 244.61 1183.99 244.6 1407.76 244.6 1518.89 192.32 1631.54 192.23" stroke="rgba(51,121,194,0.58)" stroke-width="2"></path><path d="M274.49 424.63C430.92 423.42 567.41 272.6 880.83 269.97 1194.24 267.34 1330.17 107.98 1487.16 106.56" stroke="rgba(51,121,194,0.58)" stroke-width="2"></path><path d="M668.75 438.56C761.14 423.73 738.21 200.14 956.94 199.74 1175.66 199.34 1386.86 304.07 1533.31 304.49" stroke="rgba(51,121,194,0.58)" stroke-width="2"></path><path d="M570.02 424.8C725.95 418.94 841.09 171.95 1138.88 167.92 1436.68 163.89 1563.51 71.89 1707.75 71.55" stroke="rgba(51,121,194,0.58)" stroke-width="2"></path></g><defs><mask id="SvgjsMask1146"><rect width="1440" height="419" fill="#ffffff"></rect></mask></defs></svg>