<?xml version="1.0" standalone="no"?>
<!DOCTYPE svg PUBLIC "-//W3C//DTD SVG 20010904//EN"
 "http://www.w3.org/TR/2001/REC-SVG-20010904/DTD/svg10.dtd">
<svg version="1.0" xmlns="http://www.w3.org/2000/svg"
 width="240.000000pt" height="240.000000pt" viewBox="0 0 240.000000 240.000000"
 preserveAspectRatio="xMidYMid meet">

<g transform="translate(0.000000,240.000000) scale(0.100000,-0.100000)"
fill="#000000" stroke="none">
<path d="M1920 1246 c0 -2 7 -7 16 -10 8 -3 12 -2 9 4 -6 10 -25 14 -25 6z"/>
<path d="M1771 1214 c0 -11 3 -14 6 -6 3 7 2 16 -1 19 -3 4 -6 -2 -5 -13z"/>
<path d="M1998 1195 c40 -35 79 -87 53 -71 -6 4 -31 -2 -55 -12 -32 -15 -47
-17 -55 -9 -8 8 -11 -1 -11 -31 0 -48 -32 -150 -63 -202 -41 -70 -123 -163
-182 -208 -83 -63 -243 -137 -350 -163 -60 -14 -126 -22 -197 -23 -120 -1
-123 -8 -19 -47 148 -56 331 -80 460 -61 64 9 65 9 125 -29 69 -43 196 -88
273 -96 74 -8 79 11 18 79 -26 29 -57 73 -70 99 l-24 46 48 31 c60 39 143 127
170 180 35 68 54 160 47 224 -12 116 -89 248 -179 309 -22 14 -19 10 11 -16z"/>
<path d="M1932 1170 c0 -19 2 -27 5 -17 2 9 2 25 0 35 -3 9 -5 1 -5 -18z"/>
<path d="M1780 1131 c0 -73 -27 -162 -46 -154 -8 3 -32 -2 -54 -11 -22 -9 -42
-16 -45 -16 -2 0 7 27 21 60 17 42 24 77 23 117 l-2 58 -7 -70 c-10 -100 -36
-151 -115 -223 -82 -75 -162 -116 -270 -139 -84 -17 -251 -23 -345 -11 -54 7
-53 7 10 -7 36 -8 101 -14 145 -15 l80 -1 -40 -15 c-22 -8 -52 -19 -67 -24
-42 -13 -72 -37 -56 -44 7 -3 -15 -4 -49 -1 -39 3 -65 1 -69 -6 -9 -15 -121
-65 -223 -100 -124 -43 -167 -37 -124 15 16 19 15 19 -6 -1 -30 -27 -22 -53
17 -53 16 0 52 7 82 16 67 20 230 91 251 110 13 12 29 12 95 3 159 -22 332 9
501 90 125 61 199 130 257 241 35 66 40 85 44 158 3 45 2 82 -2 82 -3 0 -6
-26 -6 -59z"/>
<path d="M855 739 c-4 -6 -25 -24 -47 -40 -23 -16 -36 -29 -31 -29 12 0 102
79 91 80 -4 0 -10 -5 -13 -11z"/>
<path d="M612 637 c-18 -27 -26 -44 -17 -37 17 14 59 80 54 84 -2 2 -19 -19
-37 -47z"/>
</g>
</svg>
