<svg id="visual" viewBox="0 0 960 540" width="960" height="540" xmlns="http://www.w3.org/2000/svg" xmlns:xlink="http://www.w3.org/1999/xlink" version="1.1"><path d="M0 371L13.3 371.8C26.7 372.7 53.3 374.3 80 377.3C106.7 380.3 133.3 384.7 160 377.5C186.7 370.3 213.3 351.7 240 346.8C266.7 342 293.3 351 320 359.7C346.7 368.3 373.3 376.7 400 375.7C426.7 374.7 453.3 364.3 480 353.5C506.7 342.7 533.3 331.3 560 329.7C586.7 328 613.3 336 640 345.3C666.7 354.7 693.3 365.3 720 371.5C746.7 377.7 773.3 379.3 800 376.3C826.7 373.3 853.3 365.7 880 357.8C906.7 350 933.3 342 946.7 338L960 334L960 541L946.7 541C933.3 541 906.7 541 880 541C853.3 541 826.7 541 800 541C773.3 541 746.7 541 720 541C693.3 541 666.7 541 640 541C613.3 541 586.7 541 560 541C533.3 541 506.7 541 480 541C453.3 541 426.7 541 400 541C373.3 541 346.7 541 320 541C293.3 541 266.7 541 240 541C213.3 541 186.7 541 160 541C133.3 541 106.7 541 80 541C53.3 541 26.7 541 13.3 541L0 541Z" fill="#04125c"></path><path d="M0 357L13.3 367.8C26.7 378.7 53.3 400.3 80 405.8C106.7 411.3 133.3 400.7 160 399C186.7 397.3 213.3 404.7 240 398.2C266.7 391.7 293.3 371.3 320 370.8C346.7 370.3 373.3 389.7 400 397.2C426.7 404.7 453.3 400.3 480 394.2C506.7 388 533.3 380 560 382.3C586.7 384.7 613.3 397.3 640 404.2C666.7 411 693.3 412 720 409.5C746.7 407 773.3 401 800 402.2C826.7 403.3 853.3 411.7 880 408.2C906.7 404.7 933.3 389.3 946.7 381.7L960 374L960 541L946.7 541C933.3 541 906.7 541 880 541C853.3 541 826.7 541 800 541C773.3 541 746.7 541 720 541C693.3 541 666.7 541 640 541C613.3 541 586.7 541 560 541C533.3 541 506.7 541 480 541C453.3 541 426.7 541 400 541C373.3 541 346.7 541 320 541C293.3 541 266.7 541 240 541C213.3 541 186.7 541 160 541C133.3 541 106.7 541 80 541C53.3 541 26.7 541 13.3 541L0 541Z" fill="#2849b9"></path><path d="M0 451L13.3 446.2C26.7 441.3 53.3 431.7 80 431.8C106.7 432 133.3 442 160 445C186.7 448 213.3 444 240 435.7C266.7 427.3 293.3 414.7 320 408.2C346.7 401.7 373.3 401.3 400 408C426.7 414.7 453.3 428.3 480 434.7C506.7 441 533.3 440 560 436.5C586.7 433 613.3 427 640 428.2C666.7 429.3 693.3 437.7 720 441.2C746.7 444.7 773.3 443.3 800 437.3C826.7 431.3 853.3 420.7 880 415.5C906.7 410.3 933.3 410.7 946.7 410.8L960 411L960 541L946.7 541C933.3 541 906.7 541 880 541C853.3 541 826.7 541 800 541C773.3 541 746.7 541 720 541C693.3 541 666.7 541 640 541C613.3 541 586.7 541 560 541C533.3 541 506.7 541 480 541C453.3 541 426.7 541 400 541C373.3 541 346.7 541 320 541C293.3 541 266.7 541 240 541C213.3 541 186.7 541 160 541C133.3 541 106.7 541 80 541C53.3 541 26.7 541 13.3 541L0 541Z" fill="#316ff6"></path><path d="M0 446L13.3 448C26.7 450 53.3 454 80 459.3C106.7 464.7 133.3 471.3 160 468.5C186.7 465.7 213.3 453.3 240 453C266.7 452.7 293.3 464.3 320 467.7C346.7 471 373.3 466 400 462.7C426.7 459.3 453.3 457.7 480 452.7C506.7 447.7 533.3 439.3 560 444C586.7 448.7 613.3 466.3 640 467.8C666.7 469.3 693.3 454.7 720 447.8C746.7 441 773.3 442 800 447.2C826.7 452.3 853.3 461.7 880 461.7C906.7 461.7 933.3 452.3 946.7 447.7L960 443L960 541L946.7 541C933.3 541 906.7 541 880 541C853.3 541 826.7 541 800 541C773.3 541 746.7 541 720 541C693.3 541 666.7 541 640 541C613.3 541 586.7 541 560 541C533.3 541 506.7 541 480 541C453.3 541 426.7 541 400 541C373.3 541 346.7 541 320 541C293.3 541 266.7 541 240 541C213.3 541 186.7 541 160 541C133.3 541 106.7 541 80 541C53.3 541 26.7 541 13.3 541L0 541Z" fill="#2849b9"></path><path d="M0 484L13.3 482.3C26.7 480.7 53.3 477.3 80 482.3C106.7 487.3 133.3 500.7 160 502C186.7 503.3 213.3 492.7 240 488C266.7 483.3 293.3 484.7 320 486.2C346.7 487.7 373.3 489.3 400 491.8C426.7 494.3 453.3 497.7 480 499C506.7 500.3 533.3 499.7 560 498C586.7 496.3 613.3 493.7 640 491.2C666.7 488.7 693.3 486.3 720 487.2C746.7 488 773.3 492 800 495.2C826.7 498.3 853.3 500.7 880 503C906.7 505.3 933.3 507.7 946.7 508.8L960 510L960 541L946.7 541C933.3 541 906.7 541 880 541C853.3 541 826.7 541 800 541C773.3 541 746.7 541 720 541C693.3 541 666.7 541 640 541C613.3 541 586.7 541 560 541C533.3 541 506.7 541 480 541C453.3 541 426.7 541 400 541C373.3 541 346.7 541 320 541C293.3 541 266.7 541 240 541C213.3 541 186.7 541 160 541C133.3 541 106.7 541 80 541C53.3 541 26.7 541 13.3 541L0 541Z" fill="#04125c"></path></svg>