<svg id="visual" viewBox="0 0 900 600" width="900" height="600" xmlns="http://www.w3.org/2000/svg" xmlns:xlink="http://www.w3.org/1999/xlink" version="1.1"><path d="M0 85L11.5 88C23 91 46 97 69 102C92 107 115 111 138.2 118C161.3 125 184.7 135 207.8 137C231 139 254 133 277 124C300 115 323 103 346 102C369 101 392 111 415.2 112C438.3 113 461.7 105 484.8 101C508 97 531 97 554 104C577 111 600 125 623 130C646 135 669 131 692.2 125C715.3 119 738.7 111 761.8 105C785 99 808 95 831 90C854 85 877 79 888.5 76L900 73L900 0L888.5 0C877 0 854 0 831 0C808 0 785 0 761.8 0C738.7 0 715.3 0 692.2 0C669 0 646 0 623 0C600 0 577 0 554 0C531 0 508 0 484.8 0C461.7 0 438.3 0 415.2 0C392 0 369 0 346 0C323 0 300 0 277 0C254 0 231 0 207.8 0C184.7 0 161.3 0 138.2 0C115 0 92 0 69 0C46 0 23 0 11.5 0L0 0Z" fill="#6198ff"></path><path d="M0 253L11.5 258C23 263 46 273 69 279C92 285 115 287 138.2 283C161.3 279 184.7 269 207.8 269C231 269 254 279 277 274C300 269 323 249 346 241C369 233 392 237 415.2 240C438.3 243 461.7 245 484.8 248C508 251 531 255 554 261C577 267 600 275 623 288C646 301 669 319 692.2 312C715.3 305 738.7 273 761.8 255C785 237 808 233 831 233C854 233 877 237 888.5 239L900 241L900 71L888.5 74C877 77 854 83 831 88C808 93 785 97 761.8 103C738.7 109 715.3 117 692.2 123C669 129 646 133 623 128C600 123 577 109 554 102C531 95 508 95 484.8 99C461.7 103 438.3 111 415.2 110C392 109 369 99 346 100C323 101 300 113 277 122C254 131 231 137 207.8 135C184.7 133 161.3 123 138.2 116C115 109 92 105 69 100C46 95 23 89 11.5 86L0 83Z" fill="#3c80ff"></path><path d="M0 343L11.5 349C23 355 46 367 69 373C92 379 115 379 138.2 370C161.3 361 184.7 343 207.8 337C231 331 254 337 277 332C300 327 323 311 346 305C369 299 392 303 415.2 308C438.3 313 461.7 319 484.8 325C508 331 531 337 554 347C577 357 600 371 623 380C646 389 669 393 692.2 386C715.3 379 738.7 361 761.8 349C785 337 808 331 831 331C854 331 877 337 888.5 340L900 343L900 239L888.5 237C877 235 854 231 831 231C808 231 785 235 761.8 253C738.7 271 715.3 303 692.2 310C669 317 646 299 623 286C600 273 577 265 554 259C531 253 508 249 484.8 246C461.7 243 438.3 241 415.2 238C392 235 369 231 346 239C323 247 300 267 277 272C254 277 231 267 207.8 267C184.7 267 161.3 277 138.2 281C115 285 92 283 69 277C46 271 23 261 11.5 256L0 251Z" fill="#0066ff"></path><path d="M0 421L11.5 427C23 433 46 445 69 450C92 455 115 453 138.2 441C161.3 429 184.7 407 207.8 404C231 401 254 417 277 417C300 417 323 401 346 392C369 383 392 381 415.2 380C438.3 379 461.7 379 484.8 386C508 393 531 407 554 417C577 427 600 433 623 440C646 447 669 455 692.2 454C715.3 453 738.7 443 761.8 434C785 425 808 417 831 417C854 417 877 425 888.5 429L900 433L900 341L888.5 338C877 335 854 329 831 329C808 329 785 335 761.8 347C738.7 359 715.3 377 692.2 384C669 391 646 387 623 378C600 369 577 355 554 345C531 335 508 329 484.8 323C461.7 317 438.3 311 415.2 306C392 301 369 297 346 303C323 309 300 325 277 330C254 335 231 329 207.8 335C184.7 341 161.3 359 138.2 368C115 377 92 377 69 371C46 365 23 353 11.5 347L0 341Z" fill="#0059dd"></path><path d="M0 601L11.5 601C23 601 46 601 69 601C92 601 115 601 138.2 601C161.3 601 184.7 601 207.8 601C231 601 254 601 277 601C300 601 323 601 346 601C369 601 392 601 415.2 601C438.3 601 461.7 601 484.8 601C508 601 531 601 554 601C577 601 600 601 623 601C646 601 669 601 692.2 601C715.3 601 738.7 601 761.8 601C785 601 808 601 831 601C854 601 877 601 888.5 601L900 601L900 431L888.5 427C877 423 854 415 831 415C808 415 785 423 761.8 432C738.7 441 715.3 451 692.2 452C669 453 646 445 623 438C600 431 577 425 554 415C531 405 508 391 484.8 384C461.7 377 438.3 377 415.2 378C392 379 369 381 346 390C323 399 300 415 277 415C254 415 231 399 207.8 402C184.7 405 161.3 427 138.2 439C115 451 92 453 69 448C46 443 23 431 11.5 425L0 419Z" fill="#004cbb"></path></svg>