<svg id="visual" viewBox="0 0 900 600" width="900" height="600" xmlns="http://www.w3.org/2000/svg" xmlns:xlink="http://www.w3.org/1999/xlink" version="1.1"><path d="M0 112L11.5 111.2C23 110.3 46 108.7 69 110.3C92 112 115 117 138.2 113.8C161.3 110.7 184.7 99.3 207.8 98.7C231 98 254 108 277 105.7C300 103.3 323 88.7 346 85C369 81.3 392 88.7 415.2 93.5C438.3 98.3 461.7 100.7 484.8 99C508 97.3 531 91.7 554 97.8C577 104 600 122 623 123C646 124 669 108 692.2 100.5C715.3 93 738.7 94 761.8 104.5C785 115 808 135 831 141.8C854 148.7 877 142.3 888.5 139.2L900 136L900 0L888.5 0C877 0 854 0 831 0C808 0 785 0 761.8 0C738.7 0 715.3 0 692.2 0C669 0 646 0 623 0C600 0 577 0 554 0C531 0 508 0 484.8 0C461.7 0 438.3 0 415.2 0C392 0 369 0 346 0C323 0 300 0 277 0C254 0 231 0 207.8 0C184.7 0 161.3 0 138.2 0C115 0 92 0 69 0C46 0 23 0 11.5 0L0 0Z" fill="#316ff6"></path><path d="M0 111L11.5 109.2C23 107.3 46 103.7 69 97.2C92 90.7 115 81.3 138.2 83.3C161.3 85.3 184.7 98.7 207.8 94.2C231 89.7 254 67.3 277 59.7C300 52 323 59 346 61.3C369 63.7 392 61.3 415.2 62C438.3 62.7 461.7 66.3 484.8 68.3C508 70.3 531 70.7 554 72.2C577 73.7 600 76.3 623 72.3C646 68.3 669 57.7 692.2 62.5C715.3 67.3 738.7 87.7 761.8 88.3C785 89 808 70 831 69.8C854 69.7 877 88.3 888.5 97.7L900 107L900 0L888.5 0C877 0 854 0 831 0C808 0 785 0 761.8 0C738.7 0 715.3 0 692.2 0C669 0 646 0 623 0C600 0 577 0 554 0C531 0 508 0 484.8 0C461.7 0 438.3 0 415.2 0C392 0 369 0 346 0C323 0 300 0 277 0C254 0 231 0 207.8 0C184.7 0 161.3 0 138.2 0C115 0 92 0 69 0C46 0 23 0 11.5 0L0 0Z" fill="#5c98fb"></path><path d="M0 36L11.5 42.5C23 49 46 62 69 64.2C92 66.3 115 57.7 138.2 50.3C161.3 43 184.7 37 207.8 32.3C231 27.7 254 24.3 277 28C300 31.7 323 42.3 346 49.5C369 56.7 392 60.3 415.2 59.5C438.3 58.7 461.7 53.3 484.8 47.3C508 41.3 531 34.7 554 30.3C577 26 600 24 623 28.5C646 33 669 44 692.2 43C715.3 42 738.7 29 761.8 25.3C785 21.7 808 27.3 831 35.2C854 43 877 53 888.5 58L900 63L900 0L888.5 0C877 0 854 0 831 0C808 0 785 0 761.8 0C738.7 0 715.3 0 692.2 0C669 0 646 0 623 0C600 0 577 0 554 0C531 0 508 0 484.8 0C461.7 0 438.3 0 415.2 0C392 0 369 0 346 0C323 0 300 0 277 0C254 0 231 0 207.8 0C184.7 0 161.3 0 138.2 0C115 0 92 0 69 0C46 0 23 0 11.5 0L0 0Z" fill="#92bdf9"></path></svg>