<svg id="visual" viewBox="0 0 900 600" width="900" height="600" xmlns="http://www.w3.org/2000/svg" xmlns:xlink="http://www.w3.org/1999/xlink" version="1.1"><path d="M0 384L11.5 389.8C23 395.7 46 407.3 69 415.8C92 424.3 115 429.7 138.2 435.5C161.3 441.3 184.7 447.7 207.8 451.3C231 455 254 456 277 451.3C300 446.7 323 436.3 346 432.3C369 428.3 392 430.7 415.2 426.7C438.3 422.7 461.7 412.3 484.8 405.8C508 399.3 531 396.7 554 398.3C577 400 600 406 623 398.8C646 391.7 669 371.3 692.2 374.3C715.3 377.3 738.7 403.7 761.8 417.3C785 431 808 432 831 427.5C854 423 877 413 888.5 408L900 403L900 601L888.5 601C877 601 854 601 831 601C808 601 785 601 761.8 601C738.7 601 715.3 601 692.2 601C669 601 646 601 623 601C600 601 577 601 554 601C531 601 508 601 484.8 601C461.7 601 438.3 601 415.2 601C392 601 369 601 346 601C323 601 300 601 277 601C254 601 231 601 207.8 601C184.7 601 161.3 601 138.2 601C115 601 92 601 69 601C46 601 23 601 11.5 601L0 601Z" fill="#316ff6"></path><path d="M0 507L11.5 499.3C23 491.7 46 476.3 69 478.2C92 480 115 499 138.2 506.5C161.3 514 184.7 510 207.8 499C231 488 254 470 277 472.2C300 474.3 323 496.7 346 495.5C369 494.3 392 469.7 415.2 452C438.3 434.3 461.7 423.7 484.8 418.5C508 413.3 531 413.7 554 424C577 434.3 600 454.7 623 462.7C646 470.7 669 466.3 692.2 470.5C715.3 474.7 738.7 487.3 761.8 487.8C785 488.3 808 476.7 831 479.7C854 482.7 877 500.3 888.5 509.2L900 518L900 601L888.5 601C877 601 854 601 831 601C808 601 785 601 761.8 601C738.7 601 715.3 601 692.2 601C669 601 646 601 623 601C600 601 577 601 554 601C531 601 508 601 484.8 601C461.7 601 438.3 601 415.2 601C392 601 369 601 346 601C323 601 300 601 277 601C254 601 231 601 207.8 601C184.7 601 161.3 601 138.2 601C115 601 92 601 69 601C46 601 23 601 11.5 601L0 601Z" fill="#5c98fb"></path><path d="M0 537L11.5 526.2C23 515.3 46 493.7 69 496.7C92 499.7 115 527.3 138.2 539.7C161.3 552 184.7 549 207.8 545C231 541 254 536 277 524.2C300 512.3 323 493.7 346 487.7C369 481.7 392 488.3 415.2 499.3C438.3 510.3 461.7 525.7 484.8 522.5C508 519.3 531 497.7 554 494.7C577 491.7 600 507.3 623 517.3C646 527.3 669 531.7 692.2 540C715.3 548.3 738.7 560.7 761.8 557.2C785 553.7 808 534.3 831 518.8C854 503.3 877 491.7 888.5 485.8L900 480L900 601L888.5 601C877 601 854 601 831 601C808 601 785 601 761.8 601C738.7 601 715.3 601 692.2 601C669 601 646 601 623 601C600 601 577 601 554 601C531 601 508 601 484.8 601C461.7 601 438.3 601 415.2 601C392 601 369 601 346 601C323 601 300 601 277 601C254 601 231 601 207.8 601C184.7 601 161.3 601 138.2 601C115 601 92 601 69 601C46 601 23 601 11.5 601L0 601Z" fill="#92bdf9"></path></svg>