<svg id="visual" viewBox="0 0 960 540" width="960" height="540" xmlns="http://www.w3.org/2000/svg" xmlns:xlink="http://www.w3.org/1999/xlink" version="1.1"><path d="M0 437L26.7 426.3C53.3 415.7 106.7 394.3 160 392.5C213.3 390.7 266.7 408.3 320 421.5C373.3 434.7 426.7 443.3 480 443.5C533.3 443.7 586.7 435.3 640 425.5C693.3 415.7 746.7 404.3 800 414.2C853.3 424 906.7 455 933.3 470.5L960 486L960 541L933.3 541C906.7 541 853.3 541 800 541C746.7 541 693.3 541 640 541C586.7 541 533.3 541 480 541C426.7 541 373.3 541 320 541C266.7 541 213.3 541 160 541C106.7 541 53.3 541 26.7 541L0 541Z" fill="#04125c" stroke-linecap="round" stroke-linejoin="miter"></path></svg>